<svg id="visual" viewBox="0 0 900 600" width="900" height="600" xmlns="http://www.w3.org/2000/svg" xmlns:xlink="http://www.w3.org/1999/xlink" version="1.1"><path d="M0 420L21.5 408.5C43 397 86 374 128.8 373.8C171.7 373.7 214.3 396.3 257.2 411C300 425.7 343 432.3 385.8 429.5C428.7 426.7 471.3 414.3 514.2 413.2C557 412 600 422 642.8 424.7C685.7 427.3 728.3 422.7 771.2 420.7C814 418.7 857 419.3 878.5 419.7L900 420L900 601L878.5 601C857 601 814 601 771.2 601C728.3 601 685.7 601 642.8 601C600 601 557 601 514.2 601C471.3 601 428.7 601 385.8 601C343 601 300 601 257.2 601C214.3 601 171.7 601 128.8 601C86 601 43 601 21.5 601L0 601Z" fill="#016064"></path><path d="M0 471L21.5 458.5C43 446 86 421 128.8 413.8C171.7 406.7 214.3 417.3 257.2 426.2C300 435 343 442 385.8 448.5C428.7 455 471.3 461 514.2 454.2C557 447.3 600 427.7 642.8 423.8C685.7 420 728.3 432 771.2 441.7C814 451.3 857 458.7 878.5 462.3L900 466L900 601L878.5 601C857 601 814 601 771.2 601C728.3 601 685.7 601 642.8 601C600 601 557 601 514.2 601C471.3 601 428.7 601 385.8 601C343 601 300 601 257.2 601C214.3 601 171.7 601 128.8 601C86 601 43 601 21.5 601L0 601Z" fill="#007090"></path><path d="M0 454L21.5 457C43 460 86 466 128.8 470C171.7 474 214.3 476 257.2 471.2C300 466.3 343 454.7 385.8 454.7C428.7 454.7 471.3 466.3 514.2 467.3C557 468.3 600 458.7 642.8 460C685.7 461.3 728.3 473.7 771.2 477.2C814 480.7 857 475.3 878.5 472.7L900 470L900 601L878.5 601C857 601 814 601 771.2 601C728.3 601 685.7 601 642.8 601C600 601 557 601 514.2 601C471.3 601 428.7 601 385.8 601C343 601 300 601 257.2 601C214.3 601 171.7 601 128.8 601C86 601 43 601 21.5 601L0 601Z" fill="#007aba"></path><path d="M0 536L21.5 536.2C43 536.3 86 536.7 128.8 529C171.7 521.3 214.3 505.7 257.2 501C300 496.3 343 502.7 385.8 510C428.7 517.3 471.3 525.7 514.2 530.7C557 535.7 600 537.3 642.8 528.8C685.7 520.3 728.3 501.7 771.2 499.2C814 496.7 857 510.3 878.5 517.2L900 524L900 601L878.5 601C857 601 814 601 771.2 601C728.3 601 685.7 601 642.8 601C600 601 557 601 514.2 601C471.3 601 428.7 601 385.8 601C343 601 300 601 257.2 601C214.3 601 171.7 601 128.8 601C86 601 43 601 21.5 601L0 601Z" fill="#057de0"></path><path d="M0 547L21.5 544C43 541 86 535 128.8 533.7C171.7 532.3 214.3 535.7 257.2 541.5C300 547.3 343 555.7 385.8 560.2C428.7 564.7 471.3 565.3 514.2 561.7C557 558 600 550 642.8 551.3C685.7 552.7 728.3 563.3 771.2 567C814 570.7 857 567.3 878.5 565.7L900 564L900 601L878.5 601C857 601 814 601 771.2 601C728.3 601 685.7 601 642.8 601C600 601 557 601 514.2 601C471.3 601 428.7 601 385.8 601C343 601 300 601 257.2 601C214.3 601 171.7 601 128.8 601C86 601 43 601 21.5 601L0 601Z" fill="#597aff"></path></svg>