<svg id="visual" viewBox="0 0 900 600" width="900" height="600" xmlns="http://www.w3.org/2000/svg" xmlns:xlink="http://www.w3.org/1999/xlink" version="1.1">
    <path d="M0 382L21.5 384C43 386 86 390 128.8 398.3C171.7 406.7 214.3 419.3 257.2 414C300 408.7 343 385.3 385.8 385.5C428.7 385.7 471.3 409.3 514.2 422.3C557 435.3 600 437.7 642.8 439.2C685.7 440.7 728.3 441.3 771.2 432.3C814 423.3 857 404.7 878.5 395.3L900 386L900 601L878.5 601C857 601 814 601 771.2 601C728.3 601 685.7 601 642.8 601C600 601 557 601 514.2 601C471.3 601 428.7 601 385.8 601C343 601 300 601 257.2 601C214.3 601 171.7 601 128.8 601C86 601 43 601 21.5 601L0 601Z" fill="#0492c2"></path>
    <path d="M0 395L21.5 396.2C43 397.3 86 399.7 128.8 400.8C171.7 402 214.3 402 257.2 409.8C300 417.7 343 433.3 385.8 433.5C428.7 433.7 471.3 418.3 514.2 422.8C557 427.3 600 451.7 642.8 460.8C685.7 470 728.3 464 771.2 464C814 464 857 470 878.5 473L900 476L900 601L878.5 601C857 601 814 601 771.2 601C728.3 601 685.7 601 642.8 601C600 601 557 601 514.2 601C471.3 601 428.7 601 385.8 601C343 601 300 601 257.2 601C214.3 601 171.7 601 128.8 601C86 601 43 601 21.5 601L0 601Z" fill="#0086a9"></path>
    <path d="M0 446L21.5 453.5C43 461 86 476 128.8 484C171.7 492 214.3 493 257.2 488.7C300 484.3 343 474.7 385.8 471C428.7 467.3 471.3 469.7 514.2 467.7C557 465.7 600 459.3 642.8 454C685.7 448.7 728.3 444.3 771.2 452C814 459.7 857 479.3 878.5 489.2L900 499L900 601L878.5 601C857 601 814 601 771.2 601C728.3 601 685.7 601 642.8 601C600 601 557 601 514.2 601C471.3 601 428.7 601 385.8 601C343 601 300 601 257.2 601C214.3 601 171.7 601 128.8 601C86 601 43 601 21.5 601L0 601Z" fill="#007a91"></path>
    <path d="M0 506L21.5 505.3C43 504.7 86 503.3 128.8 505.2C171.7 507 214.3 512 257.2 515.3C300 518.7 343 520.3 385.8 522.7C428.7 525 471.3 528 514.2 522.3C557 516.7 600 502.3 642.8 499.8C685.7 497.3 728.3 506.7 771.2 514.7C814 522.7 857 529.3 878.5 532.7L900 536L900 601L878.5 601C857 601 814 601 771.2 601C728.3 601 685.7 601 642.8 601C600 601 557 601 514.2 601C471.3 601 428.7 601 385.8 601C343 601 300 601 257.2 601C214.3 601 171.7 601 128.8 601C86 601 43 601 21.5 601L0 601Z" fill="#006d7a"></path>
    <path d="M0 571L21.5 571C43 571 86 571 128.8 563.7C171.7 556.3 214.3 541.7 257.2 539.2C300 536.7 343 546.3 385.8 548.3C428.7 550.3 471.3 544.7 514.2 542C557 539.3 600 539.7 642.8 544.3C685.7 549 728.3 558 771.2 562.5C814 567 857 567 878.5 567L900 567L900 601L878.5 601C857 601 814 601 771.2 601C728.3 601 685.7 601 642.8 601C600 601 557 601 514.2 601C471.3 601 428.7 601 385.8 601C343 601 300 601 257.2 601C214.3 601 171.7 601 128.8 601C86 601 43 601 21.5 601L0 601Z" fill="#016064"></path>
</svg>