<svg id="visual" viewBox="0 0 900 450" width="900" height="450" xmlns="http://www.w3.org/2000/svg" xmlns:xlink="http://www.w3.org/1999/xlink" version="1.1"><path d="M0 275L21.5 276.8C43 278.7 86 282.3 128.8 280.3C171.7 278.3 214.3 270.7 257.2 267.3C300 264 343 265 385.8 273.3C428.7 281.7 471.3 297.3 514.2 306.5C557 315.7 600 318.3 642.8 310.8C685.7 303.3 728.3 285.7 771.2 277.7C814 269.7 857 271.3 878.5 272.2L900 273L900 451L878.5 451C857 451 814 451 771.2 451C728.3 451 685.7 451 642.8 451C600 451 557 451 514.2 451C471.3 451 428.7 451 385.8 451C343 451 300 451 257.2 451C214.3 451 171.7 451 128.8 451C86 451 43 451 21.5 451L0 451Z" fill="#597aff"></path><path d="M0 326L21.5 325C43 324 86 322 128.8 326.8C171.7 331.7 214.3 343.3 257.2 348.3C300 353.3 343 351.7 385.8 346.5C428.7 341.3 471.3 332.7 514.2 324.8C557 317 600 310 642.8 311.3C685.7 312.7 728.3 322.3 771.2 329.3C814 336.3 857 340.7 878.5 342.8L900 345L900 451L878.5 451C857 451 814 451 771.2 451C728.3 451 685.7 451 642.8 451C600 451 557 451 514.2 451C471.3 451 428.7 451 385.8 451C343 451 300 451 257.2 451C214.3 451 171.7 451 128.8 451C86 451 43 451 21.5 451L0 451Z" fill="#4d7aff"></path><path d="M0 370L21.5 363.3C43 356.7 86 343.3 128.8 344.8C171.7 346.3 214.3 362.7 257.2 367.8C300 373 343 367 385.8 363.3C428.7 359.7 471.3 358.3 514.2 356.3C557 354.3 600 351.7 642.8 353.8C685.7 356 728.3 363 771.2 365.2C814 367.3 857 364.7 878.5 363.3L900 362L900 451L878.5 451C857 451 814 451 771.2 451C728.3 451 685.7 451 642.8 451C600 451 557 451 514.2 451C471.3 451 428.7 451 385.8 451C343 451 300 451 257.2 451C214.3 451 171.7 451 128.8 451C86 451 43 451 21.5 451L0 451Z" fill="#3f7aff"></path><path d="M0 400L21.5 394.8C43 389.7 86 379.3 128.8 379C171.7 378.7 214.3 388.3 257.2 387C300 385.7 343 373.3 385.8 373.2C428.7 373 471.3 385 514.2 389.7C557 394.3 600 391.7 642.8 391.7C685.7 391.7 728.3 394.3 771.2 392.2C814 390 857 383 878.5 379.5L900 376L900 451L878.5 451C857 451 814 451 771.2 451C728.3 451 685.7 451 642.8 451C600 451 557 451 514.2 451C471.3 451 428.7 451 385.8 451C343 451 300 451 257.2 451C214.3 451 171.7 451 128.8 451C86 451 43 451 21.5 451L0 451Z" fill="#2c7aff"></path><path d="M0 414L21.5 416.2C43 418.3 86 422.7 128.8 421.3C171.7 420 214.3 413 257.2 412.2C300 411.3 343 416.7 385.8 418C428.7 419.3 471.3 416.7 514.2 413.7C557 410.7 600 407.3 642.8 408.2C685.7 409 728.3 414 771.2 415.8C814 417.7 857 416.3 878.5 415.7L900 415L900 451L878.5 451C857 451 814 451 771.2 451C728.3 451 685.7 451 642.8 451C600 451 557 451 514.2 451C471.3 451 428.7 451 385.8 451C343 451 300 451 257.2 451C214.3 451 171.7 451 128.8 451C86 451 43 451 21.5 451L0 451Z" fill="#067aff"></path></svg>